# xmcd
#
# Track frame offsets: 
#        150
#        14400
#        32663
#        49532
#        65204
#        83210
#        106896
#        143666
#        168730
#        195162
#        223178
#
# Disc length: 3866 seconds
#
# Revision: 0
# Processed by: cddbd v1.5.2PL0 Copyright (c) Steve Scherf et al.
# Submitted via: ExactAudioCopyFreeDBPlugin 1.0
#
DISCID=960f180b
DTITLE=Lord Bishop Rocks - 15 Years Of Loud
DYEAR=2014
DGENRE=Blues
TTITLE0=Sucide - My Brain Just Died
TTITLE1=Sunshine Of My Love
TTITLE2=Plastic Flowers
TTITLE3=Sister Love
TTITLE4=Don't You Know
TTITLE5=Black River
TTITLE6=Forget About The Outside
TTITLE7=Great Ass
TTITLE8=Sweet Soul Solution
TTITLE9=Everyone That's Cool Is Dead
TTITLE10=Are You Ready
EXTD=
EXTT0=
EXTT1=
EXTT2=
EXTT3=
EXTT4=
EXTT5=
EXTT6=
EXTT7=
EXTT8=
EXTT9=
EXTT10=
PLAYORDER=
